<svg width="1538" height="1000" viewBox="0 0 1538 1000" fill="none" xmlns="http://www.w3.org/2000/svg">
<rect width="1538" height="1000" fill="#1E1E1E"/>
<rect x="155" width="1200" height="1000" rx="30" fill="#2B1B22"/>
<path d="M488.163 553L522.029 470.333H522.207L556.074 553H545.318L535.896 529.267H507.896L498.385 553H488.163ZM511.274 520.822H532.518L526.207 505C525.437 502.985 524.696 501 523.985 499.044C523.274 497.089 522.563 494.748 521.851 492.022C521.14 494.748 520.459 497.089 519.807 499.044C519.155 500.941 518.414 502.926 517.585 505L511.274 520.822ZM568.887 553V473H588.71C593.984 473 598.428 473.8 602.043 475.4C605.717 477 608.68 479.104 610.932 481.711C613.184 484.259 614.813 487.044 615.821 490.067C616.888 493.089 617.421 496.052 617.421 498.956C617.421 501.8 616.917 504.733 615.91 507.756C614.902 510.778 613.273 513.593 611.021 516.2C608.769 518.807 605.806 520.911 602.132 522.511C598.458 524.111 593.984 524.911 588.71 524.911H579.021V553H568.887ZM579.021 515.844H588.176C592.976 515.844 596.769 515.015 599.554 513.356C602.339 511.637 604.325 509.504 605.51 506.956C606.695 504.348 607.288 501.681 607.288 498.956C607.288 496.348 606.695 493.741 605.51 491.133C604.384 488.526 602.428 486.363 599.643 484.644C596.917 482.926 593.095 482.067 588.176 482.067H579.021V515.844ZM632.887 553V473H652.71C657.984 473 662.428 473.8 666.043 475.4C669.717 477 672.68 479.104 674.932 481.711C677.184 484.259 678.813 487.044 679.821 490.067C680.888 493.089 681.421 496.052 681.421 498.956C681.421 501.8 680.917 504.733 679.91 507.756C678.902 510.778 677.273 513.593 675.021 516.2C672.769 518.807 669.806 520.911 666.132 522.511C662.458 524.111 657.984 524.911 652.71 524.911H643.021V553H632.887ZM643.021 515.844H652.176C656.976 515.844 660.769 515.015 663.554 513.356C666.339 511.637 668.325 509.504 669.51 506.956C670.695 504.348 671.288 501.681 671.288 498.956C671.288 496.348 670.695 493.741 669.51 491.133C668.384 488.526 666.428 486.363 663.643 484.644C660.917 482.926 657.095 482.067 652.176 482.067H643.021V515.844ZM789.113 555.667L733.113 495.667V553H723.512V470.333L779.513 530.333V473H789.113V555.667ZM801.913 553L835.779 470.333H835.957L869.824 553H859.068L849.646 529.267H821.646L812.135 553H801.913ZM825.024 520.822H846.268L839.957 505C839.187 502.985 838.446 501 837.735 499.044C837.024 497.089 836.313 494.748 835.601 492.022C834.89 494.748 834.209 497.089 833.557 499.044C832.905 500.941 832.164 502.926 831.335 505L825.024 520.822ZM882.637 553V470.333L919.793 521.533L956.238 470.333V553H946.104V516.022C946.104 513.593 946.134 510.956 946.193 508.111C946.252 505.207 946.46 501.919 946.815 498.244C944.978 501.504 943.171 504.378 941.393 506.867C939.675 509.296 938.104 511.548 936.682 513.622L919.438 538.067L901.66 513.622C900.178 511.548 898.578 509.296 896.86 506.867C895.2 504.378 893.423 501.504 891.526 498.244C891.882 501.919 892.089 505.207 892.149 508.111C892.208 510.956 892.238 513.593 892.238 516.022V553H882.637ZM978.637 553V473H1018.1V482.067H988.771V499.133H1011.88V508.2H988.771V543.933H1018.1V553H978.637Z" fill="#AA9EA5"/>
<rect x="180" y="15" width="1150" height="50" rx="25" fill="#922C47"/>
<rect x="180" y="109" width="1150" height="866" rx="90" fill="#AA9EA5" fill-opacity="0.3"/>
<rect x="1239" y="20" width="80" height="40" rx="20" fill="#2B1B22"/>
<rect x="1147" y="20" width="80" height="40" rx="20" fill="#2B1B22"/>
<rect x="1055" y="20" width="80" height="40" rx="20" fill="#2B1B22"/>
<g clip-path="url(#clip0_0_1)">
<g filter="url(#filter0_d_0_1)">
<path d="M202 24.42L211 29.62L220 24.42M202 55.58V45.2L193 40M229 40L220 45.2V55.58M193.54 29.92L211 40.02L228.46 29.92M211 60.16V40M229 48V32C228.999 31.2985 228.814 30.6096 228.463 30.0023C228.112 29.395 227.607 28.8907 227 28.54L213 20.54C212.392 20.1889 211.702 20.0041 211 20.0041C210.298 20.0041 209.608 20.1889 209 20.54L195 28.54C194.393 28.8907 193.888 29.395 193.537 30.0023C193.186 30.6096 193.001 31.2985 193 32V48C193.001 48.7014 193.186 49.3904 193.537 49.9977C193.888 50.605 194.393 51.1093 195 51.46L209 59.46C209.608 59.8111 210.298 59.9959 211 59.9959C211.702 59.9959 212.392 59.8111 213 59.46L227 51.46C227.607 51.1093 228.112 50.605 228.463 49.9977C228.814 49.3904 228.999 48.7014 229 48Z" stroke="#AA9EA5" stroke-width="4" stroke-linecap="round" stroke-linejoin="round" shape-rendering="crispEdges"/>
</g>
</g>
<path d="M186 41C176.469 41 165.853 39.5911 156.611 42.0555C143.687 45.5019 130.285 49.819 119 57.2222C104.927 66.4538 95.5686 84.6171 87.5 99.0555C85.2462 103.089 85.287 107.261 83.8889 111.556C81.869 117.76 80.1 124.046 78 130.222C72.5374 146.289 68.9917 165.859 70 183C70.2851 187.847 72 193.696 72 199" stroke="white" stroke-width="3" stroke-linecap="round"/>
<path d="M52 191C56.8795 191 62.0281 197.795 64.4444 201.5C65.8849 203.709 72.2318 215.462 73.1111 211.944C74.954 204.573 82.4283 197.252 87.7778 192.444C92.3864 188.302 97.0614 184.383 102.333 181.111C104.226 179.937 107.288 178.423 108 177" stroke="white" stroke-width="3" stroke-linecap="round"/>
<path d="M0.624414 235V226.25H3.49247C4.28321 226.25 4.97025 226.38 5.55358 226.639C6.1434 226.898 6.62951 227.242 7.01191 227.669C7.39432 228.097 7.67951 228.57 7.86747 229.089C8.05543 229.601 8.14941 230.113 8.14941 230.625C8.14941 231.137 8.05543 231.652 7.86747 232.171C7.67951 232.683 7.39432 233.153 7.01191 233.581C6.62951 234.008 6.1434 234.352 5.55358 234.611C4.97025 234.87 4.28321 235 3.49247 235H0.624414ZM1.73275 234.008H3.3758C4.04988 234.008 4.61701 233.905 5.07719 233.697C5.53738 233.483 5.91006 233.208 6.19525 232.871C6.48043 232.527 6.6846 232.158 6.80775 231.762C6.93738 231.367 7.00219 230.988 7.00219 230.625C7.00219 230.262 6.93738 229.883 6.80775 229.487C6.6846 229.092 6.48043 228.726 6.19525 228.389C5.91006 228.045 5.53738 227.77 5.07719 227.562C4.61701 227.349 4.04988 227.242 3.3758 227.242H1.73275V234.008ZM12.1692 235.078C11.6378 235.078 11.1517 234.945 10.7109 234.679C10.2702 234.407 9.91693 234.044 9.65119 233.59C9.39193 233.137 9.2623 232.634 9.2623 232.083C9.2623 231.532 9.39193 231.03 9.65119 230.576C9.91693 230.123 10.2702 229.763 10.7109 229.497C11.1517 229.225 11.6378 229.089 12.1692 229.089C12.5711 229.089 12.947 229.163 13.297 229.312C13.6535 229.462 13.9614 229.669 14.2206 229.935V229.167H15.1929V235H14.2206V234.232C13.9614 234.491 13.6535 234.699 13.297 234.854C12.947 235.003 12.5711 235.078 12.1692 235.078ZM12.3054 234.125C12.6748 234.125 13.0086 234.034 13.3067 233.853C13.6114 233.665 13.8512 233.419 14.0262 233.114C14.2077 232.803 14.2984 232.459 14.2984 232.083C14.2984 231.707 14.2077 231.367 14.0262 231.062C13.8512 230.751 13.6114 230.505 13.3067 230.324C13.0086 230.136 12.6748 230.042 12.3054 230.042C11.9359 230.042 11.5989 230.136 11.2942 230.324C10.9961 230.505 10.7563 230.751 10.5748 231.062C10.3998 231.367 10.3123 231.707 10.3123 232.083C10.3123 232.459 10.3998 232.803 10.5748 233.114C10.7563 233.419 10.9961 233.665 11.2942 233.853C11.5989 234.034 11.9359 234.125 12.3054 234.125ZM17.0535 235V229.167H18.0257V230.236C18.2331 229.893 18.5085 229.62 18.8521 229.419C19.1956 229.212 19.6039 229.108 20.0771 229.108L20.3396 230.158C20.2164 230.119 20.0738 230.1 19.9118 230.1C19.3673 230.1 18.9298 230.275 18.5993 230.625C18.2687 230.969 18.1035 231.461 18.1035 232.103V235H17.0535ZM25.2298 235L22.5951 231.792L24.7632 229.167H25.9785L23.8493 231.714L26.5618 235H25.2298ZM21.4285 235V225.667H22.4785V235H21.4285ZM30.7572 235V225.958L34.8211 231.558L38.8072 225.958V235H37.6989V230.956C37.6989 230.69 37.7021 230.401 37.7086 230.09C37.7151 229.773 37.7378 229.413 37.7767 229.011C37.5757 229.368 37.3781 229.682 37.1836 229.954C36.9957 230.22 36.8239 230.466 36.6683 230.693L34.7822 233.367L32.8378 230.693C32.6757 230.466 32.5007 230.22 32.3128 229.954C32.1313 229.682 31.9369 229.368 31.7294 229.011C31.7683 229.413 31.791 229.773 31.7975 230.09C31.804 230.401 31.8072 230.69 31.8072 230.956V235H30.7572ZM43.6294 235.117C43.0656 235.117 42.5503 234.981 42.0836 234.708C41.6169 234.436 41.2443 234.07 40.9656 233.61C40.6933 233.15 40.5572 232.641 40.5572 232.083C40.5572 231.519 40.6933 231.011 40.9656 230.557C41.2443 230.097 41.6169 229.731 42.0836 229.458C42.5503 229.186 43.0656 229.05 43.6294 229.05C44.1998 229.05 44.7151 229.186 45.1753 229.458C45.6419 229.731 46.0114 230.097 46.2836 230.557C46.5623 231.011 46.7017 231.519 46.7017 232.083C46.7017 232.641 46.5623 233.15 46.2836 233.61C46.0114 234.07 45.6419 234.436 45.1753 234.708C44.7151 234.981 44.1998 235.117 43.6294 235.117ZM43.6294 234.125C44.0054 234.125 44.3457 234.034 44.6503 233.853C44.9549 233.665 45.198 233.419 45.3794 233.114C45.5609 232.803 45.6517 232.459 45.6517 232.083C45.6517 231.707 45.5609 231.367 45.3794 231.062C45.198 230.751 44.9549 230.505 44.6503 230.324C44.3457 230.136 44.0054 230.042 43.6294 230.042C43.2535 230.042 42.9132 230.136 42.6086 230.324C42.304 230.505 42.0609 230.751 41.8794 231.062C41.698 231.367 41.6072 231.707 41.6072 232.083C41.6072 232.459 41.698 232.803 41.8794 233.114C42.0609 233.419 42.304 233.665 42.6086 233.853C42.9132 234.034 43.2535 234.125 43.6294 234.125ZM50.6556 235.078C50.1241 235.078 49.638 234.945 49.1972 234.679C48.7565 234.407 48.4033 234.044 48.1375 233.59C47.8783 233.137 47.7486 232.634 47.7486 232.083C47.7486 231.532 47.8783 231.03 48.1375 230.576C48.4033 230.123 48.7565 229.763 49.1972 229.497C49.638 229.225 50.1241 229.089 50.6556 229.089C51.038 229.089 51.3977 229.157 51.7347 229.293C52.0718 229.429 52.3699 229.617 52.6292 229.857V225.667H53.6792V235H52.707V234.232C52.4477 234.491 52.1398 234.699 51.7834 234.854C51.4334 235.003 51.0574 235.078 50.6556 235.078ZM50.7917 234.125C51.1611 234.125 51.4949 234.034 51.7931 233.853C52.0977 233.665 52.3375 233.419 52.5125 233.114C52.694 232.803 52.7847 232.459 52.7847 232.083C52.7847 231.707 52.694 231.367 52.5125 231.062C52.3375 230.751 52.0977 230.505 51.7931 230.324C51.4949 230.136 51.1611 230.042 50.7917 230.042C50.4222 230.042 50.0852 230.136 49.7806 230.324C49.4824 230.505 49.2426 230.751 49.0611 231.062C48.8861 231.367 48.7986 231.707 48.7986 232.083C48.7986 232.459 48.8861 232.803 49.0611 233.114C49.2426 233.419 49.4824 233.665 49.7806 233.853C50.0852 234.034 50.4222 234.125 50.7917 234.125ZM58.3203 235.117C57.7111 235.117 57.1634 234.981 56.6773 234.708C56.1976 234.436 55.8185 234.067 55.5398 233.6C55.2676 233.127 55.1314 232.602 55.1314 232.025C55.1314 231.474 55.2643 230.975 55.5301 230.528C55.7958 230.074 56.1523 229.714 56.5995 229.449C57.0532 229.183 57.5523 229.05 58.0967 229.05C58.6347 229.05 59.1273 229.18 59.5745 229.439C60.0217 229.692 60.3782 230.035 60.6439 230.469C60.9097 230.904 61.0426 231.396 61.0426 231.947V232.375H57.2314C57.0629 232.375 56.8912 232.369 56.7162 232.356C56.5412 232.343 56.3694 232.323 56.2009 232.297C56.2722 232.816 56.5055 233.25 56.9009 233.6C57.3027 233.95 57.7791 234.125 58.3301 234.125C58.6995 234.125 59.043 234.041 59.3606 233.872C59.6782 233.704 59.9342 233.48 60.1287 233.201L60.4203 234.397C60.1416 234.624 59.8208 234.802 59.4578 234.932C59.1014 235.055 58.7222 235.117 58.3203 235.117ZM56.1717 231.587C56.5217 231.529 56.875 231.5 57.2314 231.5H59.1662C59.3088 231.5 59.4481 231.506 59.5842 231.519C59.7268 231.526 59.8694 231.536 60.012 231.549C59.9213 231.095 59.6944 230.722 59.3314 230.431C58.9685 230.132 58.5569 229.983 58.0967 229.983C57.6236 229.983 57.2088 230.142 56.8523 230.46C56.4958 230.771 56.2689 231.147 56.1717 231.587ZM64.8895 227.242V226.25H70.6645V227.242H68.3312V235H67.2229V227.242H64.8895ZM73.5709 235.117C73.007 235.117 72.4917 234.981 72.025 234.708C71.5584 234.436 71.1857 234.07 70.907 233.61C70.6347 233.15 70.4986 232.641 70.4986 232.083C70.4986 231.519 70.6347 231.011 70.907 230.557C71.1857 230.097 71.5584 229.731 72.025 229.458C72.4917 229.186 73.007 229.05 73.5709 229.05C74.1412 229.05 74.6565 229.186 75.1167 229.458C75.5834 229.731 75.9528 230.097 76.225 230.557C76.5037 231.011 76.6431 231.519 76.6431 232.083C76.6431 232.641 76.5037 233.15 76.225 233.61C75.9528 234.07 75.5834 234.436 75.1167 234.708C74.6565 234.981 74.1412 235.117 73.5709 235.117ZM73.5709 234.125C73.9468 234.125 74.2871 234.034 74.5917 233.853C74.8963 233.665 75.1394 233.419 75.3209 233.114C75.5023 232.803 75.5931 232.459 75.5931 232.083C75.5931 231.707 75.5023 231.367 75.3209 231.062C75.1394 230.751 74.8963 230.505 74.5917 230.324C74.2871 230.136 73.9468 230.042 73.5709 230.042C73.1949 230.042 72.8547 230.136 72.55 230.324C72.2454 230.505 72.0023 230.751 71.8209 231.062C71.6394 231.367 71.5486 231.707 71.5486 232.083C71.5486 232.459 71.6394 232.803 71.8209 233.114C72.0023 233.419 72.2454 233.665 72.55 233.853C72.8547 234.034 73.1949 234.125 73.5709 234.125ZM80.4609 238.033C80.0137 238.033 79.6053 237.969 79.2359 237.839C78.8729 237.709 78.5488 237.531 78.2637 237.304L78.5553 236.118C78.7498 236.397 79.009 236.624 79.3331 236.799C79.6572 236.974 80.0299 237.061 80.4512 237.061C81.1058 237.061 81.634 236.863 82.0359 236.468C82.4442 236.073 82.6484 235.564 82.6484 234.942V234.232C82.3891 234.491 82.0812 234.699 81.7248 234.854C81.3748 235.003 80.9988 235.078 80.597 235.078C80.0655 235.078 79.5794 234.945 79.1387 234.679C78.6979 234.407 78.3447 234.044 78.0789 233.59C77.8197 233.137 77.69 232.634 77.69 232.083C77.69 231.532 77.8197 231.03 78.0789 230.576C78.3447 230.123 78.6979 229.763 79.1387 229.497C79.5794 229.225 80.0655 229.089 80.597 229.089C80.9988 229.089 81.3748 229.163 81.7248 229.312C82.0812 229.462 82.3891 229.669 82.6484 229.935V229.167H83.6206V235C83.6206 235.635 83.4715 236.18 83.1734 236.633C82.8817 237.087 82.4961 237.434 82.0164 237.674C81.5368 237.913 81.0183 238.033 80.4609 238.033ZM80.7331 234.125C81.1025 234.125 81.4363 234.034 81.7345 233.853C82.0391 233.665 82.2789 233.419 82.4539 233.114C82.6354 232.803 82.7262 232.459 82.7262 232.083C82.7262 231.707 82.6354 231.367 82.4539 231.062C82.2789 230.751 82.0391 230.505 81.7345 230.324C81.4363 230.136 81.1025 230.042 80.7331 230.042C80.3637 230.042 80.0266 230.136 79.722 230.324C79.4238 230.505 79.184 230.751 79.0025 231.062C78.8275 231.367 78.74 231.707 78.74 232.083C78.74 232.459 78.8275 232.803 79.0025 233.114C79.184 233.419 79.4238 233.665 79.722 233.853C80.0266 234.034 80.3637 234.125 80.7331 234.125ZM87.8437 238.033C87.3965 238.033 86.9881 237.969 86.6187 237.839C86.2557 237.709 85.9316 237.531 85.6465 237.304L85.9381 236.118C86.1326 236.397 86.3918 236.624 86.7159 236.799C87.04 236.974 87.4127 237.061 87.834 237.061C88.4886 237.061 89.0168 236.863 89.4187 236.468C89.827 236.073 90.0312 235.564 90.0312 234.942V234.232C89.7719 234.491 89.4641 234.699 89.1076 234.854C88.7576 235.003 88.3816 235.078 87.9798 235.078C87.4483 235.078 86.9622 234.945 86.5215 234.679C86.0807 234.407 85.7275 234.044 85.4617 233.59C85.2025 233.137 85.0729 232.634 85.0729 232.083C85.0729 231.532 85.2025 231.03 85.4617 230.576C85.7275 230.123 86.0807 229.763 86.5215 229.497C86.9622 229.225 87.4483 229.089 87.9798 229.089C88.3816 229.089 88.7576 229.163 89.1076 229.312C89.4641 229.462 89.7719 229.669 90.0312 229.935V229.167H91.0034V235C91.0034 235.635 90.8543 236.18 90.5562 236.633C90.2645 237.087 89.8789 237.434 89.3992 237.674C88.9196 237.913 88.4011 238.033 87.8437 238.033ZM88.1159 234.125C88.4854 234.125 88.8191 234.034 89.1173 233.853C89.4219 233.665 89.6617 233.419 89.8367 233.114C90.0182 232.803 90.109 232.459 90.109 232.083C90.109 231.707 90.0182 231.367 89.8367 231.062C89.6617 230.751 89.4219 230.505 89.1173 230.324C88.8191 230.136 88.4854 230.042 88.1159 230.042C87.7465 230.042 87.4094 230.136 87.1048 230.324C86.8066 230.505 86.5668 230.751 86.3854 231.062C86.2104 231.367 86.1229 231.707 86.1229 232.083C86.1229 232.459 86.2104 232.803 86.3854 233.114C86.5668 233.419 86.8066 233.665 87.1048 233.853C87.4094 234.034 87.7465 234.125 88.1159 234.125ZM92.864 235V225.667H93.914V235H92.864ZM98.5567 235.117C97.9474 235.117 97.3997 234.981 96.9136 234.708C96.434 234.436 96.0548 234.067 95.7761 233.6C95.5039 233.127 95.3678 232.602 95.3678 232.025C95.3678 231.474 95.5006 230.975 95.7664 230.528C96.0321 230.074 96.3886 229.714 96.8358 229.449C97.2895 229.183 97.7886 229.05 98.3331 229.05C98.871 229.05 99.3636 229.18 99.8108 229.439C100.258 229.692 100.615 230.035 100.88 230.469C101.146 230.904 101.279 231.396 101.279 231.947V232.375H97.4678C97.2993 232.375 97.1275 232.369 96.9525 232.356C96.7775 232.343 96.6057 232.323 96.4372 232.297C96.5085 232.816 96.7418 233.25 97.1372 233.6C97.5391 233.95 98.0155 234.125 98.5664 234.125C98.9358 234.125 99.2793 234.041 99.5969 233.872C99.9145 233.704 100.171 233.48 100.365 233.201L100.657 234.397C100.378 234.624 100.057 234.802 99.6942 234.932C99.3377 235.055 98.9585 235.117 98.5567 235.117ZM96.4081 231.587C96.7581 231.529 97.1113 231.5 97.4678 231.5H99.4025C99.5451 231.5 99.6844 231.506 99.8206 231.519C99.9631 231.526 100.106 231.536 100.248 231.549C100.158 231.095 99.9307 230.722 99.5678 230.431C99.2048 230.132 98.7932 229.983 98.3331 229.983C97.8599 229.983 97.4451 230.142 97.0886 230.46C96.7321 230.771 96.5053 231.147 96.4081 231.587ZM105.884 235V226.25H108.334C108.892 226.25 109.332 226.36 109.656 226.581C109.987 226.801 110.224 227.07 110.366 227.388C110.509 227.699 110.58 227.994 110.58 228.272C110.58 228.59 110.505 228.881 110.356 229.147C110.214 229.406 110.019 229.62 109.773 229.789C110.246 230.003 110.629 230.324 110.92 230.751C111.218 231.179 111.368 231.665 111.368 232.21C111.368 232.67 111.251 233.114 111.018 233.542C110.791 233.969 110.45 234.319 109.997 234.592C109.549 234.864 108.995 235 108.334 235H105.884ZM106.993 234.008H108.256C108.736 234.008 109.122 233.914 109.413 233.726C109.705 233.538 109.919 233.302 110.055 233.017C110.191 232.731 110.259 232.45 110.259 232.171C110.259 231.899 110.194 231.62 110.065 231.335C109.935 231.05 109.724 230.813 109.433 230.625C109.141 230.431 108.749 230.333 108.256 230.333H106.993V234.008ZM106.993 229.4H108.247C108.629 229.4 108.937 229.309 109.17 229.128C109.41 228.94 109.53 228.674 109.53 228.331C109.53 227.974 109.413 227.705 109.18 227.524C108.947 227.336 108.649 227.242 108.286 227.242H106.993V229.4ZM115.106 235.117C114.698 235.117 114.315 235.016 113.959 234.815C113.602 234.608 113.314 234.31 113.094 233.921C112.873 233.532 112.763 233.065 112.763 232.521V229.167H113.813V232.375C113.813 232.835 113.949 233.244 114.221 233.6C114.5 233.95 114.889 234.125 115.388 234.125C115.796 234.125 116.159 233.979 116.477 233.688C116.801 233.389 116.963 232.962 116.963 232.404V229.167H118.013V235H117.041V234.057C116.827 234.4 116.548 234.663 116.205 234.844C115.868 235.026 115.501 235.117 115.106 235.117ZM120.56 235V230.042H119.238V229.167H120.589V227.222H121.581V229.167H123.03V230.042H121.61V235H120.56ZM124.935 235V230.042H123.613V229.167H124.964V227.222H125.956V229.167H127.405V230.042H125.985V235H124.935ZM131.006 235.117C130.443 235.117 129.927 234.981 129.461 234.708C128.994 234.436 128.621 234.07 128.343 233.61C128.07 233.15 127.934 232.641 127.934 232.083C127.934 231.519 128.07 231.011 128.343 230.557C128.621 230.097 128.994 229.731 129.461 229.458C129.927 229.186 130.443 229.05 131.006 229.05C131.577 229.05 132.092 229.186 132.552 229.458C133.019 229.731 133.388 230.097 133.661 230.557C133.939 231.011 134.079 231.519 134.079 232.083C134.079 232.641 133.939 233.15 133.661 233.61C133.388 234.07 133.019 234.436 132.552 234.708C132.092 234.981 131.577 235.117 131.006 235.117ZM131.006 234.125C131.382 234.125 131.723 234.034 132.027 233.853C132.332 233.665 132.575 233.419 132.756 233.114C132.938 232.803 133.029 232.459 133.029 232.083C133.029 231.707 132.938 231.367 132.756 231.062C132.575 230.751 132.332 230.505 132.027 230.324C131.723 230.136 131.382 230.042 131.006 230.042C130.63 230.042 130.29 230.136 129.986 230.324C129.681 230.505 129.438 230.751 129.256 231.062C129.075 231.367 128.984 231.707 128.984 232.083C128.984 232.459 129.075 232.803 129.256 233.114C129.438 233.419 129.681 233.665 129.986 233.853C130.29 234.034 130.63 234.125 131.006 234.125ZM135.534 235V229.167H136.506V230.11C136.72 229.766 136.995 229.504 137.333 229.322C137.676 229.141 138.045 229.05 138.441 229.05C138.856 229.05 139.238 229.154 139.588 229.361C139.945 229.562 140.233 229.857 140.453 230.246C140.674 230.628 140.784 231.095 140.784 231.646V235H139.734V231.792C139.734 231.331 139.595 230.926 139.316 230.576C139.044 230.22 138.658 230.042 138.159 230.042C137.751 230.042 137.384 230.191 137.06 230.489C136.743 230.781 136.584 231.205 136.584 231.762V235H135.534Z" fill="white"/>
<path d="M1080.62 47V34.5H1082.21V45.5833H1086.54V47H1080.62ZM1088.55 47V38.6667H1090.05V47H1088.55ZM1089.3 37.1667C1089.02 37.1667 1088.78 37.0694 1088.59 36.875C1088.4 36.6806 1088.3 36.4444 1088.3 36.1667C1088.3 35.8796 1088.4 35.6435 1088.59 35.4583C1088.78 35.2639 1089.02 35.1667 1089.3 35.1667C1089.59 35.1667 1089.82 35.2639 1090.01 35.4583C1090.2 35.6435 1090.3 35.8796 1090.3 36.1667C1090.3 36.4444 1090.2 36.6806 1090.01 36.875C1089.82 37.0694 1089.59 37.1667 1089.3 37.1667ZM1092.71 47V38.6667H1094.1V40.0139C1094.4 39.5231 1094.8 39.1481 1095.28 38.8889C1095.77 38.6296 1096.3 38.5 1096.86 38.5C1097.45 38.5 1098 38.6481 1098.5 38.9444C1099.01 39.2315 1099.42 39.6528 1099.74 40.2083C1100.05 40.7546 1100.21 41.4213 1100.21 42.2083V47H1098.71V42.4167C1098.71 41.7593 1098.51 41.1806 1098.11 40.6806C1097.72 40.1713 1097.17 39.9167 1096.46 39.9167C1095.88 39.9167 1095.35 40.1296 1094.89 40.5556C1094.44 40.9722 1094.21 41.5787 1094.21 42.375V47H1092.71ZM1108.14 47L1104.38 42.4167L1107.47 38.6667H1109.21L1106.17 42.3056L1110.04 47H1108.14ZM1102.71 47V33.6667H1104.21V47H1102.71Z" fill="#AA9EA5"/>
<path d="M1172.62 47V34.5H1174.21V45.5833H1178.54V47H1172.62ZM1180.55 47V38.6667H1182.05V47H1180.55ZM1181.3 37.1667C1181.02 37.1667 1180.78 37.0694 1180.59 36.875C1180.4 36.6806 1180.3 36.4444 1180.3 36.1667C1180.3 35.8796 1180.4 35.6435 1180.59 35.4583C1180.78 35.2639 1181.02 35.1667 1181.3 35.1667C1181.59 35.1667 1181.82 35.2639 1182.01 35.4583C1182.2 35.6435 1182.3 35.8796 1182.3 36.1667C1182.3 36.4444 1182.2 36.6806 1182.01 36.875C1181.82 37.0694 1181.59 37.1667 1181.3 37.1667ZM1184.71 47V38.6667H1186.1V40.0139C1186.4 39.5231 1186.8 39.1481 1187.28 38.8889C1187.77 38.6296 1188.3 38.5 1188.86 38.5C1189.45 38.5 1190 38.6481 1190.5 38.9444C1191.01 39.2315 1191.42 39.6528 1191.74 40.2083C1192.05 40.7546 1192.21 41.4213 1192.21 42.2083V47H1190.71V42.4167C1190.71 41.7593 1190.51 41.1806 1190.11 40.6806C1189.72 40.1713 1189.17 39.9167 1188.46 39.9167C1187.88 39.9167 1187.35 40.1296 1186.89 40.5556C1186.44 40.9722 1186.21 41.5787 1186.21 42.375V47H1184.71ZM1200.14 47L1196.38 42.4167L1199.47 38.6667H1201.21L1198.17 42.3056L1202.04 47H1200.14ZM1194.71 47V33.6667H1196.21V47H1194.71Z" fill="#AA9EA5"/>
<path d="M1264.62 47V34.5H1266.21V45.5833H1270.54V47H1264.62ZM1272.55 47V38.6667H1274.05V47H1272.55ZM1273.3 37.1667C1273.02 37.1667 1272.78 37.0694 1272.59 36.875C1272.4 36.6806 1272.3 36.4444 1272.3 36.1667C1272.3 35.8796 1272.4 35.6435 1272.59 35.4583C1272.78 35.2639 1273.02 35.1667 1273.3 35.1667C1273.59 35.1667 1273.82 35.2639 1274.01 35.4583C1274.2 35.6435 1274.3 35.8796 1274.3 36.1667C1274.3 36.4444 1274.2 36.6806 1274.01 36.875C1273.82 37.0694 1273.59 37.1667 1273.3 37.1667ZM1276.71 47V38.6667H1278.1V40.0139C1278.4 39.5231 1278.8 39.1481 1279.28 38.8889C1279.77 38.6296 1280.3 38.5 1280.86 38.5C1281.45 38.5 1282 38.6481 1282.5 38.9444C1283.01 39.2315 1283.42 39.6528 1283.74 40.2083C1284.05 40.7546 1284.21 41.4213 1284.21 42.2083V47H1282.71V42.4167C1282.71 41.7593 1282.51 41.1806 1282.11 40.6806C1281.72 40.1713 1281.17 39.9167 1280.46 39.9167C1279.88 39.9167 1279.35 40.1296 1278.89 40.5556C1278.44 40.9722 1278.21 41.5787 1278.21 42.375V47H1276.71ZM1292.14 47L1288.38 42.4167L1291.47 38.6667H1293.21L1290.17 42.3056L1294.04 47H1292.14ZM1286.71 47V33.6667H1288.21V47H1286.71Z" fill="#AA9EA5"/>
<path d="M1277 246C1299.17 246 1321.33 246 1343.5 246C1374.85 246 1407.99 246.83 1438.39 255.611C1444.75 257.448 1450.71 260.992 1456.78 263.556C1460.06 264.941 1459.97 266.244 1462.06 269.111C1464.58 272.582 1467.61 277.209 1469.56 281C1470.56 282.959 1470.47 285.475 1471.56 287.5C1475.2 294.277 1478.64 302.612 1480.78 310C1482 314.211 1482.94 318.599 1484.22 322.778C1486.8 331.142 1482.1 342.2 1486 350" stroke="white" stroke-width="3" stroke-linecap="round"/>
<path d="M1472 342C1474.63 342 1477.61 343.052 1479.56 345C1480.25 345.691 1480.59 347.668 1481.56 347.944C1482.6 348.242 1483.97 348.338 1484.78 349.222C1487.69 352.429 1487.01 354.245 1489 348.778C1490.9 343.547 1493.27 338.197 1495 333" stroke="white" stroke-width="3" stroke-linecap="round"/>
<path d="M1447.57 384.417L1442.54 371.5H1444.21L1447.15 379.028C1447.24 379.269 1447.33 379.5 1447.4 379.722C1447.48 379.935 1447.56 380.185 1447.64 380.472C1447.71 380.185 1447.79 379.935 1447.86 379.722C1447.94 379.5 1448.03 379.269 1448.12 379.028L1451.05 371.5H1452.62L1447.6 384.417H1447.57ZM1454.12 384V375.667H1455.62V384H1454.12ZM1454.87 374.167C1454.59 374.167 1454.35 374.069 1454.16 373.875C1453.96 373.681 1453.87 373.444 1453.87 373.167C1453.87 372.88 1453.96 372.644 1454.16 372.458C1454.35 372.264 1454.59 372.167 1454.87 372.167C1455.15 372.167 1455.39 372.264 1455.57 372.458C1455.77 372.644 1455.87 372.88 1455.87 373.167C1455.87 373.444 1455.77 373.681 1455.57 373.875C1455.39 374.069 1455.15 374.167 1454.87 374.167ZM1461.85 384.111C1461.09 384.111 1460.39 383.921 1459.76 383.542C1459.13 383.153 1458.63 382.634 1458.25 381.986C1457.88 381.338 1457.69 380.62 1457.69 379.833C1457.69 379.046 1457.88 378.329 1458.25 377.681C1458.63 377.032 1459.13 376.519 1459.76 376.139C1460.39 375.75 1461.09 375.556 1461.85 375.556C1462.39 375.556 1462.91 375.653 1463.39 375.847C1463.87 376.042 1464.3 376.31 1464.67 376.653V370.667H1466.17V384H1464.78V382.903C1464.41 383.273 1463.97 383.569 1463.46 383.792C1462.96 384.005 1462.42 384.111 1461.85 384.111ZM1462.04 382.75C1462.57 382.75 1463.05 382.62 1463.47 382.361C1463.91 382.093 1464.25 381.741 1464.5 381.306C1464.76 380.861 1464.89 380.37 1464.89 379.833C1464.89 379.296 1464.76 378.81 1464.5 378.375C1464.25 377.931 1463.91 377.579 1463.47 377.319C1463.05 377.051 1462.57 376.917 1462.04 376.917C1461.51 376.917 1461.03 377.051 1460.6 377.319C1460.17 377.579 1459.83 377.931 1459.57 378.375C1459.32 378.81 1459.19 379.296 1459.19 379.833C1459.19 380.37 1459.32 380.861 1459.57 381.306C1459.83 381.741 1460.17 382.093 1460.6 382.361C1461.03 382.62 1461.51 382.75 1462.04 382.75ZM1472.8 384.167C1471.93 384.167 1471.14 383.972 1470.45 383.583C1469.76 383.194 1469.22 382.667 1468.82 382C1468.43 381.324 1468.24 380.574 1468.24 379.75C1468.24 378.963 1468.43 378.25 1468.81 377.611C1469.19 376.963 1469.7 376.449 1470.34 376.069C1470.99 375.69 1471.7 375.5 1472.48 375.5C1473.24 375.5 1473.95 375.685 1474.59 376.056C1475.23 376.417 1475.74 376.907 1476.12 377.528C1476.49 378.148 1476.68 378.852 1476.68 379.639V380.25H1471.24C1471 380.25 1470.75 380.241 1470.5 380.222C1470.25 380.204 1470.01 380.176 1469.77 380.139C1469.87 380.88 1470.2 381.5 1470.77 382C1471.34 382.5 1472.02 382.75 1472.81 382.75C1473.34 382.75 1473.83 382.63 1474.28 382.389C1474.74 382.148 1475.1 381.829 1475.38 381.431L1475.8 383.139C1475.4 383.463 1474.94 383.718 1474.42 383.903C1473.91 384.079 1473.37 384.167 1472.8 384.167ZM1469.73 379.125C1470.23 379.042 1470.73 379 1471.24 379H1474C1474.21 379 1474.41 379.009 1474.6 379.028C1474.81 379.037 1475.01 379.051 1475.21 379.069C1475.08 378.421 1474.76 377.889 1474.24 377.472C1473.72 377.046 1473.13 376.833 1472.48 376.833C1471.8 376.833 1471.21 377.06 1470.7 377.514C1470.19 377.958 1469.87 378.495 1469.73 379.125ZM1482.49 384.167C1481.69 384.167 1480.95 383.972 1480.28 383.583C1479.62 383.194 1479.08 382.671 1478.69 382.014C1478.3 381.356 1478.1 380.63 1478.1 379.833C1478.1 379.028 1478.3 378.301 1478.69 377.653C1479.08 376.995 1479.62 376.472 1480.28 376.083C1480.95 375.694 1481.69 375.5 1482.49 375.5C1483.31 375.5 1484.04 375.694 1484.7 376.083C1485.37 376.472 1485.9 376.995 1486.28 377.653C1486.68 378.301 1486.88 379.028 1486.88 379.833C1486.88 380.63 1486.68 381.356 1486.28 382.014C1485.9 382.671 1485.37 383.194 1484.7 383.583C1484.04 383.972 1483.31 384.167 1482.49 384.167ZM1482.49 382.75C1483.03 382.75 1483.52 382.62 1483.95 382.361C1484.39 382.093 1484.73 381.741 1484.99 381.306C1485.25 380.861 1485.38 380.37 1485.38 379.833C1485.38 379.296 1485.25 378.81 1484.99 378.375C1484.73 377.931 1484.39 377.579 1483.95 377.319C1483.52 377.051 1483.03 376.917 1482.49 376.917C1481.96 376.917 1481.47 377.051 1481.03 377.319C1480.6 377.579 1480.25 377.931 1479.99 378.375C1479.73 378.81 1479.6 379.296 1479.6 379.833C1479.6 380.37 1479.73 380.861 1479.99 381.306C1480.25 381.741 1480.6 382.093 1481.03 382.361C1481.47 382.62 1481.96 382.75 1482.49 382.75ZM1415.79 411V398.5H1419.29C1420.09 398.5 1420.72 398.657 1421.18 398.972C1421.65 399.287 1421.99 399.671 1422.2 400.125C1422.4 400.569 1422.5 400.991 1422.5 401.389C1422.5 401.843 1422.39 402.259 1422.18 402.639C1421.98 403.009 1421.7 403.315 1421.35 403.556C1422.02 403.861 1422.57 404.319 1422.99 404.931C1423.41 405.542 1423.63 406.236 1423.63 407.014C1423.63 407.671 1423.46 408.306 1423.13 408.917C1422.8 409.528 1422.32 410.028 1421.67 410.417C1421.03 410.806 1420.24 411 1419.29 411H1415.79ZM1417.38 409.583H1419.18C1419.87 409.583 1420.42 409.449 1420.83 409.181C1421.25 408.912 1421.56 408.574 1421.75 408.167C1421.95 407.759 1422.04 407.356 1422.04 406.958C1422.04 406.569 1421.95 406.171 1421.77 405.764C1421.58 405.356 1421.28 405.019 1420.86 404.75C1420.45 404.472 1419.89 404.333 1419.18 404.333H1417.38V409.583ZM1417.38 403H1419.17C1419.71 403 1420.15 402.87 1420.49 402.611C1420.83 402.343 1421 401.963 1421 401.472C1421 400.963 1420.83 400.579 1420.5 400.319C1420.17 400.051 1419.74 399.917 1419.22 399.917H1417.38V403ZM1429.36 411.111C1428.6 411.111 1427.9 410.921 1427.27 410.542C1426.64 410.153 1426.14 409.634 1425.76 408.986C1425.39 408.338 1425.2 407.62 1425.2 406.833C1425.2 406.046 1425.39 405.329 1425.76 404.681C1426.14 404.032 1426.64 403.519 1427.27 403.139C1427.9 402.75 1428.6 402.556 1429.36 402.556C1429.93 402.556 1430.47 402.662 1430.97 402.875C1431.48 403.088 1431.92 403.384 1432.29 403.764V402.667H1433.68V411H1432.29V409.903C1431.92 410.273 1431.48 410.569 1430.97 410.792C1430.47 411.005 1429.93 411.111 1429.36 411.111ZM1429.55 409.75C1430.08 409.75 1430.55 409.62 1430.98 409.361C1431.42 409.093 1431.76 408.741 1432.01 408.306C1432.27 407.861 1432.4 407.37 1432.4 406.833C1432.4 406.296 1432.27 405.81 1432.01 405.375C1431.76 404.931 1431.42 404.579 1430.98 404.319C1430.55 404.051 1430.08 403.917 1429.55 403.917C1429.02 403.917 1428.54 404.051 1428.11 404.319C1427.68 404.579 1427.34 404.931 1427.08 405.375C1426.83 405.81 1426.7 406.296 1426.7 406.833C1426.7 407.37 1426.83 407.861 1427.08 408.306C1427.34 408.741 1427.68 409.093 1428.11 409.361C1428.54 409.62 1429.02 409.75 1429.55 409.75ZM1440.17 411.167C1439.35 411.167 1438.61 410.972 1437.94 410.583C1437.28 410.194 1436.75 409.671 1436.35 409.014C1435.95 408.356 1435.75 407.63 1435.75 406.833C1435.75 406.037 1435.95 405.31 1436.35 404.653C1436.75 403.995 1437.28 403.472 1437.94 403.083C1438.61 402.694 1439.35 402.5 1440.17 402.5C1440.77 402.5 1441.33 402.606 1441.86 402.819C1442.39 403.032 1442.85 403.315 1443.25 403.667L1442.79 405.556C1442.56 405.093 1442.21 404.704 1441.74 404.389C1441.27 404.074 1440.75 403.917 1440.15 403.917C1439.62 403.917 1439.13 404.051 1438.68 404.319C1438.25 404.579 1437.9 404.931 1437.64 405.375C1437.38 405.81 1437.25 406.296 1437.25 406.833C1437.25 407.361 1437.38 407.847 1437.64 408.292C1437.9 408.736 1438.25 409.093 1438.68 409.361C1439.13 409.62 1439.62 409.75 1440.15 409.75C1440.75 409.75 1441.27 409.597 1441.74 409.292C1442.21 408.986 1442.56 408.593 1442.79 408.111L1443.25 410C1442.85 410.352 1442.39 410.634 1441.86 410.847C1441.33 411.06 1440.77 411.167 1440.17 411.167ZM1450.51 411L1446.75 406.417L1449.85 402.667H1451.58L1448.54 406.306L1452.42 411H1450.51ZM1445.08 411V397.667H1446.58V411H1445.08ZM1456.66 415.333C1456.02 415.333 1455.44 415.241 1454.91 415.056C1454.39 414.87 1453.93 414.616 1453.52 414.292L1453.94 412.597C1454.22 412.995 1454.59 413.319 1455.05 413.569C1455.51 413.819 1456.05 413.944 1456.65 413.944C1457.58 413.944 1458.34 413.662 1458.91 413.097C1459.49 412.532 1459.79 411.806 1459.79 410.917V409.903C1459.42 410.273 1458.98 410.569 1458.47 410.792C1457.97 411.005 1457.43 411.111 1456.86 411.111C1456.1 411.111 1455.4 410.921 1454.77 410.542C1454.14 410.153 1453.64 409.634 1453.26 408.986C1452.89 408.338 1452.7 407.62 1452.7 406.833C1452.7 406.046 1452.89 405.329 1453.26 404.681C1453.64 404.032 1454.14 403.519 1454.77 403.139C1455.4 402.75 1456.1 402.556 1456.86 402.556C1457.43 402.556 1457.97 402.662 1458.47 402.875C1458.98 403.088 1459.42 403.384 1459.79 403.764V402.667H1461.18V411C1461.18 411.907 1460.96 412.685 1460.54 413.333C1460.12 413.981 1459.57 414.477 1458.88 414.819C1458.2 415.162 1457.46 415.333 1456.66 415.333ZM1457.05 409.75C1457.58 409.75 1458.05 409.62 1458.48 409.361C1458.92 409.093 1459.26 408.741 1459.51 408.306C1459.77 407.861 1459.9 407.37 1459.9 406.833C1459.9 406.296 1459.77 405.81 1459.51 405.375C1459.26 404.931 1458.92 404.579 1458.48 404.319C1458.05 404.051 1457.58 403.917 1457.05 403.917C1456.52 403.917 1456.04 404.051 1455.61 404.319C1455.18 404.579 1454.84 404.931 1454.58 405.375C1454.33 405.81 1454.2 406.296 1454.2 406.833C1454.2 407.37 1454.33 407.861 1454.58 408.306C1454.84 408.741 1455.18 409.093 1455.61 409.361C1456.04 409.62 1456.52 409.75 1457.05 409.75ZM1463.83 411V402.667H1465.22V404.194C1465.52 403.704 1465.91 403.315 1466.4 403.028C1466.89 402.731 1467.48 402.583 1468.15 402.583L1468.53 404.083C1468.35 404.028 1468.15 404 1467.92 404C1467.14 404 1466.51 404.25 1466.04 404.75C1465.57 405.241 1465.33 405.944 1465.33 406.861V411H1463.83ZM1473.62 411.167C1472.81 411.167 1472.07 410.972 1471.41 410.583C1470.74 410.194 1470.21 409.671 1469.81 409.014C1469.42 408.356 1469.23 407.63 1469.23 406.833C1469.23 406.028 1469.42 405.301 1469.81 404.653C1470.21 403.995 1470.74 403.472 1471.41 403.083C1472.07 402.694 1472.81 402.5 1473.62 402.5C1474.43 402.5 1475.17 402.694 1475.82 403.083C1476.49 403.472 1477.02 403.995 1477.41 404.653C1477.81 405.301 1478 406.028 1478 406.833C1478 407.63 1477.81 408.356 1477.41 409.014C1477.02 409.671 1476.49 410.194 1475.82 410.583C1475.17 410.972 1474.43 411.167 1473.62 411.167ZM1473.62 409.75C1474.15 409.75 1474.64 409.62 1475.07 409.361C1475.51 409.093 1475.86 408.741 1476.12 408.306C1476.37 407.861 1476.5 407.37 1476.5 406.833C1476.5 406.296 1476.37 405.81 1476.12 405.375C1475.86 404.931 1475.51 404.579 1475.07 404.319C1474.64 404.051 1474.15 403.917 1473.62 403.917C1473.08 403.917 1472.59 404.051 1472.16 404.319C1471.72 404.579 1471.37 404.931 1471.12 405.375C1470.86 405.81 1470.73 406.296 1470.73 406.833C1470.73 407.37 1470.86 407.861 1471.12 408.306C1471.37 408.741 1471.72 409.093 1472.16 409.361C1472.59 409.62 1473.08 409.75 1473.62 409.75ZM1483.26 411.167C1482.68 411.167 1482.13 411.023 1481.62 410.736C1481.12 410.44 1480.7 410.014 1480.39 409.458C1480.07 408.903 1479.92 408.236 1479.92 407.458V402.667H1481.42V407.25C1481.42 407.907 1481.61 408.491 1482 409C1482.4 409.5 1482.95 409.75 1483.67 409.75C1484.25 409.75 1484.77 409.542 1485.22 409.125C1485.69 408.699 1485.92 408.088 1485.92 407.292V402.667H1487.42V411H1486.03V409.653C1485.72 410.144 1485.32 410.519 1484.83 410.778C1484.35 411.037 1483.83 411.167 1483.26 411.167ZM1490.08 411V402.667H1491.47V404.014C1491.78 403.523 1492.17 403.148 1492.65 402.889C1493.14 402.63 1493.67 402.5 1494.24 402.5C1494.83 402.5 1495.38 402.648 1495.88 402.944C1496.38 403.231 1496.8 403.653 1497.11 404.208C1497.43 404.755 1497.58 405.421 1497.58 406.208V411H1496.08V406.417C1496.08 405.759 1495.88 405.181 1495.49 404.681C1495.1 404.171 1494.55 403.917 1493.83 403.917C1493.25 403.917 1492.73 404.13 1492.26 404.556C1491.81 404.972 1491.58 405.579 1491.58 406.375V411H1490.08ZM1503.65 411.111C1502.89 411.111 1502.2 410.921 1501.57 410.542C1500.94 410.153 1500.44 409.634 1500.06 408.986C1499.69 408.338 1499.5 407.62 1499.5 406.833C1499.5 406.046 1499.69 405.329 1500.06 404.681C1500.44 404.032 1500.94 403.519 1501.57 403.139C1502.2 402.75 1502.89 402.556 1503.65 402.556C1504.2 402.556 1504.71 402.653 1505.19 402.847C1505.68 403.042 1506.1 403.31 1506.47 403.653V397.667H1507.97V411H1506.58V409.903C1506.21 410.273 1505.77 410.569 1505.26 410.792C1504.76 411.005 1504.23 411.111 1503.65 411.111ZM1503.85 409.75C1504.38 409.75 1504.85 409.62 1505.28 409.361C1505.71 409.093 1506.06 408.741 1506.31 408.306C1506.56 407.861 1506.69 407.37 1506.69 406.833C1506.69 406.296 1506.56 405.81 1506.31 405.375C1506.06 404.931 1505.71 404.579 1505.28 404.319C1504.85 404.051 1504.38 403.917 1503.85 403.917C1503.32 403.917 1502.84 404.051 1502.4 404.319C1501.98 404.579 1501.63 404.931 1501.38 405.375C1501.13 405.81 1501 406.296 1501 406.833C1501 407.37 1501.13 407.861 1501.38 408.306C1501.63 408.741 1501.98 409.093 1502.4 409.361C1502.84 409.62 1503.32 409.75 1503.85 409.75ZM1512.63 405.417C1512.32 405.417 1512.07 405.315 1511.85 405.111C1511.65 404.898 1511.55 404.639 1511.55 404.333C1511.55 404.028 1511.65 403.773 1511.85 403.569C1512.07 403.356 1512.32 403.25 1512.63 403.25C1512.95 403.25 1513.2 403.356 1513.41 403.569C1513.61 403.773 1513.71 404.028 1513.71 404.333C1513.71 404.639 1513.61 404.898 1513.41 405.111C1513.2 405.315 1512.95 405.417 1512.63 405.417ZM1510.49 412.25C1510.91 411.731 1511.24 411.13 1511.49 410.444C1511.75 409.759 1511.88 408.972 1511.88 408.083H1513.38C1513.38 408.87 1513.27 409.616 1513.05 410.319C1512.83 411.014 1512.54 411.657 1512.16 412.25H1510.49ZM1406.67 438V425.5H1408.26V436.583H1412.59V438H1406.67ZM1417.99 438.167C1417.18 438.167 1416.45 437.972 1415.78 437.583C1415.12 437.194 1414.58 436.671 1414.18 436.014C1413.8 435.356 1413.6 434.63 1413.6 433.833C1413.6 433.028 1413.8 432.301 1414.18 431.653C1414.58 430.995 1415.12 430.472 1415.78 430.083C1416.45 429.694 1417.18 429.5 1417.99 429.5C1418.81 429.5 1419.54 429.694 1420.2 430.083C1420.87 430.472 1421.39 430.995 1421.78 431.653C1422.18 432.301 1422.38 433.028 1422.38 433.833C1422.38 434.63 1422.18 435.356 1421.78 436.014C1421.39 436.671 1420.87 437.194 1420.2 437.583C1419.54 437.972 1418.81 438.167 1417.99 438.167ZM1417.99 436.75C1418.53 436.75 1419.01 436.62 1419.45 436.361C1419.88 436.093 1420.23 435.741 1420.49 435.306C1420.75 434.861 1420.88 434.37 1420.88 433.833C1420.88 433.296 1420.75 432.81 1420.49 432.375C1420.23 431.931 1419.88 431.579 1419.45 431.319C1419.01 431.051 1418.53 430.917 1417.99 430.917C1417.45 430.917 1416.97 431.051 1416.53 431.319C1416.1 431.579 1415.75 431.931 1415.49 432.375C1415.23 432.81 1415.1 433.296 1415.1 433.833C1415.1 434.37 1415.23 434.861 1415.49 435.306C1415.75 435.741 1416.1 436.093 1416.53 436.361C1416.97 436.62 1417.45 436.75 1417.99 436.75ZM1428.26 438.167C1427.46 438.167 1426.72 437.972 1426.06 437.583C1425.39 437.194 1424.86 436.671 1424.46 436.014C1424.07 435.356 1423.88 434.63 1423.88 433.833C1423.88 433.028 1424.07 432.301 1424.46 431.653C1424.86 430.995 1425.39 430.472 1426.06 430.083C1426.72 429.694 1427.46 429.5 1428.26 429.5C1429.08 429.5 1429.81 429.694 1430.47 430.083C1431.14 430.472 1431.67 430.995 1432.06 431.653C1432.45 432.301 1432.65 433.028 1432.65 433.833C1432.65 434.63 1432.45 435.356 1432.06 436.014C1431.67 436.671 1431.14 437.194 1430.47 437.583C1429.81 437.972 1429.08 438.167 1428.26 438.167ZM1428.26 436.75C1428.8 436.75 1429.29 436.62 1429.72 436.361C1430.16 436.093 1430.5 435.741 1430.76 435.306C1431.02 434.861 1431.15 434.37 1431.15 433.833C1431.15 433.296 1431.02 432.81 1430.76 432.375C1430.5 431.931 1430.16 431.579 1429.72 431.319C1429.29 431.051 1428.8 430.917 1428.26 430.917C1427.73 430.917 1427.24 431.051 1426.81 431.319C1426.37 431.579 1426.02 431.931 1425.76 432.375C1425.5 432.81 1425.38 433.296 1425.38 433.833C1425.38 434.37 1425.5 434.861 1425.76 435.306C1426.02 435.741 1426.37 436.093 1426.81 436.361C1427.24 436.62 1427.73 436.75 1428.26 436.75ZM1434.73 442.167V429.667H1436.12V430.764C1436.5 430.384 1436.94 430.088 1437.44 429.875C1437.94 429.662 1438.48 429.556 1439.05 429.556C1439.82 429.556 1440.51 429.75 1441.13 430.139C1441.76 430.519 1442.26 431.032 1442.63 431.681C1443.01 432.329 1443.2 433.046 1443.2 433.833C1443.2 434.62 1443.01 435.338 1442.63 435.986C1442.26 436.634 1441.76 437.153 1441.13 437.542C1440.51 437.921 1439.82 438.111 1439.05 438.111C1438.5 438.111 1437.99 438.014 1437.51 437.819C1437.03 437.625 1436.6 437.356 1436.23 437.014V442.167H1434.73ZM1438.86 436.75C1439.38 436.75 1439.86 436.62 1440.29 436.361C1440.72 436.093 1441.07 435.741 1441.32 435.306C1441.57 434.861 1441.7 434.37 1441.7 433.833C1441.7 433.296 1441.57 432.81 1441.32 432.375C1441.07 431.931 1440.72 431.579 1440.29 431.319C1439.86 431.051 1439.38 430.917 1438.86 430.917C1438.33 430.917 1437.85 431.051 1437.41 431.319C1436.99 431.579 1436.64 431.931 1436.38 432.375C1436.13 432.81 1436.01 433.296 1436.01 433.833C1436.01 434.37 1436.13 434.861 1436.38 435.306C1436.64 435.741 1436.99 436.093 1437.41 436.361C1437.85 436.62 1438.33 436.75 1438.86 436.75ZM1447.43 438.167C1447.01 438.167 1446.55 438.088 1446.06 437.931C1445.57 437.764 1445.16 437.491 1444.81 437.111L1445.22 435.472C1445.48 435.907 1445.82 436.255 1446.22 436.514C1446.63 436.764 1447.07 436.889 1447.53 436.889C1447.97 436.889 1448.31 436.782 1448.53 436.569C1448.75 436.347 1448.86 436.079 1448.86 435.764C1448.86 435.403 1448.74 435.139 1448.5 434.972C1448.27 434.806 1448.06 434.69 1447.88 434.625L1446.75 434.194C1446.55 434.111 1446.3 433.991 1446.01 433.833C1445.73 433.667 1445.48 433.431 1445.26 433.125C1445.05 432.819 1444.95 432.421 1444.95 431.931C1444.95 431.486 1445.05 431.079 1445.26 430.708C1445.48 430.338 1445.78 430.046 1446.17 429.833C1446.56 429.611 1447.01 429.5 1447.54 429.5C1447.96 429.5 1448.39 429.574 1448.85 429.722C1449.3 429.87 1449.69 430.12 1450 430.472L1449.58 432.111C1449.36 431.704 1449.06 431.38 1448.68 431.139C1448.3 430.898 1447.91 430.778 1447.5 430.778C1447.12 430.778 1446.82 430.884 1446.6 431.097C1446.39 431.31 1446.28 431.556 1446.28 431.833C1446.28 432.056 1446.35 432.255 1446.5 432.431C1446.65 432.606 1446.87 432.75 1447.17 432.861L1448.29 433.292C1448.5 433.366 1448.75 433.486 1449.04 433.653C1449.35 433.819 1449.62 434.06 1449.85 434.375C1450.08 434.69 1450.2 435.116 1450.2 435.653C1450.2 436.403 1449.93 437.009 1449.4 437.472C1448.89 437.935 1448.23 438.167 1447.43 438.167ZM1454.37 432.417C1454.06 432.417 1453.8 432.315 1453.59 432.111C1453.39 431.898 1453.29 431.639 1453.29 431.333C1453.29 431.028 1453.39 430.773 1453.59 430.569C1453.8 430.356 1454.06 430.25 1454.37 430.25C1454.68 430.25 1454.94 430.356 1455.15 430.569C1455.35 430.773 1455.45 431.028 1455.45 431.333C1455.45 431.639 1455.35 431.898 1455.15 432.111C1454.94 432.315 1454.68 432.417 1454.37 432.417ZM1452.23 439.25C1452.65 438.731 1452.98 438.13 1453.23 437.444C1453.49 436.759 1453.62 435.972 1453.62 435.083H1455.12C1455.12 435.87 1455.01 436.616 1454.79 437.319C1454.57 438.014 1454.28 438.657 1453.9 439.25H1452.23ZM1462.11 438L1467.4 425.083H1467.42L1472.72 438H1471.04L1469.56 434.292H1465.19L1463.7 438H1462.11ZM1465.72 432.972H1469.04L1468.05 430.5C1467.93 430.185 1467.81 429.875 1467.7 429.569C1467.59 429.264 1467.48 428.898 1467.37 428.472C1467.26 428.898 1467.15 429.264 1467.05 429.569C1466.95 429.866 1466.83 430.176 1466.7 430.5L1465.72 432.972ZM1474.86 438V430.917H1472.98V429.667H1474.91V426.889H1476.32V429.667H1478.39V430.917H1476.36V438H1474.86ZM1478.82 434.5V433.167H1482.98V434.5H1478.82ZM1485.15 438V425.5H1486.73V436.583H1491.07V438H1485.15ZM1496.63 438.167C1495.76 438.167 1494.98 437.972 1494.29 437.583C1493.6 437.194 1493.06 436.667 1492.66 436C1492.27 435.324 1492.08 434.574 1492.08 433.75C1492.08 432.963 1492.27 432.25 1492.65 431.611C1493.03 430.963 1493.54 430.449 1494.18 430.069C1494.82 429.69 1495.54 429.5 1496.31 429.5C1497.08 429.5 1497.79 429.685 1498.43 430.056C1499.06 430.417 1499.57 430.907 1499.95 431.528C1500.33 432.148 1500.52 432.852 1500.52 433.639V434.25H1495.08C1494.84 434.25 1494.59 434.241 1494.34 434.222C1494.09 434.204 1493.85 434.176 1493.61 434.139C1493.71 434.88 1494.04 435.5 1494.61 436C1495.18 436.5 1495.86 436.75 1496.65 436.75C1497.18 436.75 1497.67 436.63 1498.12 436.389C1498.57 436.148 1498.94 435.829 1499.22 435.431L1499.63 437.139C1499.24 437.463 1498.78 437.718 1498.26 437.903C1497.75 438.079 1497.21 438.167 1496.63 438.167ZM1493.56 433.125C1494.06 433.042 1494.57 433 1495.08 433H1497.84C1498.05 433 1498.24 433.009 1498.44 433.028C1498.64 433.037 1498.85 433.051 1499.05 433.069C1498.92 432.421 1498.6 431.889 1498.08 431.472C1497.56 431.046 1496.97 430.833 1496.31 430.833C1495.64 430.833 1495.05 431.06 1494.54 431.514C1494.03 431.958 1493.7 432.495 1493.56 433.125ZM1506.09 438.111C1505.33 438.111 1504.64 437.921 1504.01 437.542C1503.38 437.153 1502.88 436.634 1502.5 435.986C1502.13 435.338 1501.94 434.62 1501.94 433.833C1501.94 433.046 1502.13 432.329 1502.5 431.681C1502.88 431.032 1503.38 430.519 1504.01 430.139C1504.64 429.75 1505.33 429.556 1506.09 429.556C1506.67 429.556 1507.21 429.662 1507.71 429.875C1508.21 430.088 1508.65 430.384 1509.02 430.764V429.667H1510.41V438H1509.02V436.903C1508.65 437.273 1508.21 437.569 1507.71 437.792C1507.21 438.005 1506.67 438.111 1506.09 438.111ZM1506.29 436.75C1506.82 436.75 1507.29 436.62 1507.72 436.361C1508.15 436.093 1508.5 435.741 1508.75 435.306C1509.01 434.861 1509.14 434.37 1509.14 433.833C1509.14 433.296 1509.01 432.81 1508.75 432.375C1508.5 431.931 1508.15 431.579 1507.72 431.319C1507.29 431.051 1506.82 430.917 1506.29 430.917C1505.76 430.917 1505.28 431.051 1504.84 431.319C1504.42 431.579 1504.08 431.931 1503.82 432.375C1503.57 432.81 1503.44 433.296 1503.44 433.833C1503.44 434.37 1503.57 434.861 1503.82 435.306C1504.08 435.741 1504.42 436.093 1504.84 436.361C1505.28 436.62 1505.76 436.75 1506.29 436.75ZM1515.22 438.167C1514.8 438.167 1514.34 438.088 1513.85 437.931C1513.37 437.764 1512.95 437.491 1512.6 437.111L1513.02 435.472C1513.28 435.907 1513.61 436.255 1514.02 436.514C1514.42 436.764 1514.86 436.889 1515.32 436.889C1515.77 436.889 1516.1 436.782 1516.32 436.569C1516.54 436.347 1516.65 436.079 1516.65 435.764C1516.65 435.403 1516.53 435.139 1516.29 434.972C1516.06 434.806 1515.85 434.69 1515.67 434.625L1514.54 434.194C1514.34 434.111 1514.09 433.991 1513.81 433.833C1513.52 433.667 1513.27 433.431 1513.06 433.125C1512.84 432.819 1512.74 432.421 1512.74 431.931C1512.74 431.486 1512.84 431.079 1513.06 430.708C1513.27 430.338 1513.57 430.046 1513.96 429.833C1514.35 429.611 1514.81 429.5 1515.34 429.5C1515.75 429.5 1516.19 429.574 1516.64 429.722C1517.09 429.87 1517.48 430.12 1517.79 430.472L1517.38 432.111C1517.15 431.704 1516.85 431.38 1516.47 431.139C1516.09 430.898 1515.7 430.778 1515.29 430.778C1514.91 430.778 1514.61 430.884 1514.39 431.097C1514.18 431.31 1514.07 431.556 1514.07 431.833C1514.07 432.056 1514.15 432.255 1514.29 432.431C1514.44 432.606 1514.66 432.75 1514.96 432.861L1516.09 433.292C1516.29 433.366 1516.54 433.486 1516.84 433.653C1517.14 433.819 1517.41 434.06 1517.64 434.375C1517.87 434.69 1517.99 435.116 1517.99 435.653C1517.99 436.403 1517.72 437.009 1517.2 437.472C1516.68 437.935 1516.02 438.167 1515.22 438.167ZM1521.13 438V430.917H1519.24V429.667H1521.18V426.889H1522.59V429.667H1524.66V430.917H1522.63V438H1521.13ZM1396.63 465.167C1395.84 465.167 1395.11 464.981 1394.44 464.611C1393.78 464.241 1393.26 463.731 1392.88 463.083L1393.8 461.264C1393.9 461.977 1394.22 462.569 1394.75 463.042C1395.28 463.514 1395.91 463.75 1396.63 463.75C1397.15 463.75 1397.63 463.625 1398.05 463.375C1398.49 463.116 1398.83 462.773 1399.08 462.347C1399.34 461.921 1399.47 461.449 1399.47 460.931C1399.47 460.412 1399.34 459.94 1399.08 459.514C1398.82 459.088 1398.47 458.75 1398.04 458.5C1397.61 458.241 1397.13 458.111 1396.59 458.111C1396.13 458.111 1395.69 458.218 1395.29 458.431C1394.89 458.634 1394.56 458.912 1394.3 459.264V452.5H1399.94V453.917H1395.66V457C1395.85 456.917 1396.04 456.861 1396.23 456.833C1396.44 456.796 1396.63 456.778 1396.82 456.778C1397.57 456.778 1398.26 456.958 1398.88 457.319C1399.51 457.681 1400.02 458.176 1400.4 458.806C1400.78 459.426 1400.97 460.134 1400.97 460.931C1400.97 461.727 1400.77 462.444 1400.37 463.083C1399.97 463.722 1399.44 464.231 1398.79 464.611C1398.14 464.981 1397.42 465.167 1396.63 465.167ZM1407.5 465.167C1406.77 465.167 1406.13 464.986 1405.59 464.625C1405.04 464.255 1404.58 463.764 1404.21 463.153C1403.85 462.532 1403.58 461.843 1403.39 461.083C1403.22 460.315 1403.13 459.537 1403.13 458.75C1403.13 457.963 1403.22 457.19 1403.39 456.431C1403.58 455.662 1403.85 454.972 1404.21 454.361C1404.58 453.741 1405.04 453.25 1405.59 452.889C1406.13 452.519 1406.77 452.333 1407.5 452.333C1408.23 452.333 1408.87 452.519 1409.42 452.889C1409.97 453.25 1410.42 453.741 1410.78 454.361C1411.15 454.972 1411.42 455.662 1411.6 456.431C1411.79 457.19 1411.88 457.963 1411.88 458.75C1411.88 459.537 1411.79 460.315 1411.6 461.083C1411.42 461.843 1411.15 462.532 1410.78 463.153C1410.42 463.764 1409.97 464.255 1409.42 464.625C1408.87 464.986 1408.23 465.167 1407.5 465.167ZM1407.5 463.75C1407.99 463.75 1408.42 463.602 1408.77 463.306C1409.12 463.009 1409.41 462.616 1409.63 462.125C1409.85 461.634 1410.02 461.097 1410.13 460.514C1410.24 459.921 1410.29 459.333 1410.29 458.75C1410.29 458.167 1410.24 457.583 1410.13 457C1410.02 456.407 1409.85 455.866 1409.63 455.375C1409.41 454.884 1409.12 454.491 1408.77 454.194C1408.42 453.898 1407.99 453.75 1407.5 453.75C1407.02 453.75 1406.6 453.898 1406.24 454.194C1405.89 454.491 1405.6 454.884 1405.38 455.375C1405.16 455.866 1404.99 456.407 1404.88 457C1404.77 457.583 1404.71 458.167 1404.71 458.75C1404.71 459.333 1404.77 459.921 1404.88 460.514C1404.99 461.097 1405.16 461.634 1405.38 462.125C1405.6 462.616 1405.89 463.009 1406.24 463.306C1406.6 463.602 1407.02 463.75 1407.5 463.75ZM1416.04 459.333C1415.45 459.333 1414.95 459.162 1414.55 458.819C1414.15 458.477 1413.86 458.037 1413.66 457.5C1413.47 456.963 1413.37 456.407 1413.37 455.833C1413.37 455.259 1413.47 454.704 1413.66 454.167C1413.86 453.63 1414.15 453.19 1414.55 452.847C1414.95 452.505 1415.45 452.333 1416.04 452.333C1416.64 452.333 1417.14 452.505 1417.52 452.847C1417.92 453.19 1418.22 453.63 1418.41 454.167C1418.61 454.704 1418.71 455.259 1418.71 455.833C1418.71 456.407 1418.61 456.963 1418.41 457.5C1418.22 458.037 1417.92 458.477 1417.52 458.819C1417.14 459.162 1416.64 459.333 1416.04 459.333ZM1416.04 458.222C1416.38 458.222 1416.65 458.102 1416.86 457.861C1417.06 457.62 1417.21 457.315 1417.3 456.944C1417.4 456.574 1417.46 456.204 1417.46 455.833C1417.46 455.454 1417.4 455.083 1417.3 454.722C1417.21 454.352 1417.06 454.046 1416.86 453.806C1416.65 453.565 1416.38 453.444 1416.04 453.444C1415.71 453.444 1415.43 453.565 1415.22 453.806C1415.02 454.046 1414.86 454.352 1414.76 454.722C1414.67 455.083 1414.62 455.454 1414.62 455.833C1414.62 456.204 1414.67 456.574 1414.76 456.944C1414.86 457.315 1415.02 457.62 1415.22 457.861C1415.43 458.102 1415.71 458.222 1416.04 458.222ZM1415.29 465L1423.87 452.5H1425.12L1416.54 465H1415.29ZM1424.37 465.167C1423.78 465.167 1423.28 464.995 1422.89 464.653C1422.49 464.31 1422.19 463.87 1422 463.333C1421.8 462.796 1421.71 462.241 1421.71 461.667C1421.71 461.093 1421.8 460.537 1422 460C1422.19 459.463 1422.49 459.023 1422.89 458.681C1423.28 458.338 1423.78 458.167 1424.37 458.167C1424.97 458.167 1425.47 458.338 1425.86 458.681C1426.26 459.023 1426.55 459.463 1426.75 460C1426.94 460.537 1427.04 461.093 1427.04 461.667C1427.04 462.241 1426.94 462.796 1426.75 463.333C1426.55 463.87 1426.26 464.31 1425.86 464.653C1425.47 464.995 1424.97 465.167 1424.37 465.167ZM1424.37 464.056C1424.71 464.056 1424.99 463.935 1425.19 463.694C1425.39 463.454 1425.54 463.148 1425.64 462.778C1425.74 462.407 1425.79 462.037 1425.79 461.667C1425.79 461.287 1425.74 460.917 1425.64 460.556C1425.54 460.185 1425.39 459.88 1425.19 459.639C1424.99 459.398 1424.71 459.278 1424.37 459.278C1424.04 459.278 1423.77 459.398 1423.55 459.639C1423.35 459.88 1423.2 460.185 1423.09 460.556C1423 460.917 1422.96 461.287 1422.96 461.667C1422.96 462.037 1423 462.407 1423.09 462.778C1423.2 463.148 1423.35 463.454 1423.55 463.694C1423.77 463.935 1424.04 464.056 1424.37 464.056ZM1432.53 453.917V452.5H1440.78V453.917H1437.45V465H1435.87V453.917H1432.53ZM1441.13 465V456.667H1442.52V458.194C1442.81 457.704 1443.21 457.315 1443.7 457.028C1444.19 456.731 1444.77 456.583 1445.45 456.583L1445.82 458.083C1445.65 458.028 1445.44 458 1445.21 458C1444.43 458 1443.81 458.25 1443.34 458.75C1442.86 459.241 1442.63 459.944 1442.63 460.861V465H1441.13ZM1450.67 465.111C1449.92 465.111 1449.22 464.921 1448.59 464.542C1447.96 464.153 1447.46 463.634 1447.08 462.986C1446.71 462.338 1446.52 461.62 1446.52 460.833C1446.52 460.046 1446.71 459.329 1447.08 458.681C1447.46 458.032 1447.96 457.519 1448.59 457.139C1449.22 456.75 1449.92 456.556 1450.67 456.556C1451.25 456.556 1451.79 456.662 1452.29 456.875C1452.79 457.088 1453.23 457.384 1453.6 457.764V456.667H1454.99V465H1453.6V463.903C1453.23 464.273 1452.79 464.569 1452.29 464.792C1451.79 465.005 1451.25 465.111 1450.67 465.111ZM1450.87 463.75C1451.4 463.75 1451.87 463.62 1452.3 463.361C1452.73 463.093 1453.08 462.741 1453.33 462.306C1453.59 461.861 1453.72 461.37 1453.72 460.833C1453.72 460.296 1453.59 459.81 1453.33 459.375C1453.08 458.931 1452.73 458.579 1452.3 458.319C1451.87 458.051 1451.4 457.917 1450.87 457.917C1450.34 457.917 1449.86 458.051 1449.42 458.319C1449 458.579 1448.66 458.931 1448.4 459.375C1448.15 459.81 1448.02 460.296 1448.02 460.833C1448.02 461.37 1448.15 461.861 1448.4 462.306C1448.66 462.741 1449 463.093 1449.42 463.361C1449.86 463.62 1450.34 463.75 1450.87 463.75ZM1457.65 465V456.667H1459.04V458.014C1459.35 457.523 1459.74 457.148 1460.22 456.889C1460.71 456.63 1461.24 456.5 1461.8 456.5C1462.4 456.5 1462.94 456.648 1463.44 456.944C1463.95 457.231 1464.36 457.653 1464.68 458.208C1464.99 458.755 1465.15 459.421 1465.15 460.208V465H1463.65V460.417C1463.65 459.759 1463.45 459.181 1463.05 458.681C1462.67 458.171 1462.11 457.917 1461.4 457.917C1460.82 457.917 1460.3 458.13 1459.83 458.556C1459.38 458.972 1459.15 459.579 1459.15 460.375V465H1457.65ZM1469.8 465.167C1469.38 465.167 1468.92 465.088 1468.43 464.931C1467.95 464.764 1467.53 464.491 1467.18 464.111L1467.6 462.472C1467.86 462.907 1468.19 463.255 1468.6 463.514C1469 463.764 1469.44 463.889 1469.9 463.889C1470.35 463.889 1470.68 463.782 1470.9 463.569C1471.12 463.347 1471.24 463.079 1471.24 462.764C1471.24 462.403 1471.11 462.139 1470.87 461.972C1470.64 461.806 1470.43 461.69 1470.25 461.625L1469.12 461.194C1468.92 461.111 1468.67 460.991 1468.39 460.833C1468.1 460.667 1467.85 460.431 1467.64 460.125C1467.42 459.819 1467.32 459.421 1467.32 458.931C1467.32 458.486 1467.42 458.079 1467.64 457.708C1467.85 457.338 1468.15 457.046 1468.54 456.833C1468.93 456.611 1469.39 456.5 1469.92 456.5C1470.33 456.5 1470.77 456.574 1471.22 456.722C1471.67 456.87 1472.06 457.12 1472.37 457.472L1471.96 459.111C1471.74 458.704 1471.43 458.38 1471.05 458.139C1470.67 457.898 1470.28 457.778 1469.87 457.778C1469.49 457.778 1469.19 457.884 1468.97 458.097C1468.76 458.31 1468.65 458.556 1468.65 458.833C1468.65 459.056 1468.73 459.255 1468.87 459.431C1469.02 459.606 1469.24 459.75 1469.54 459.861L1470.67 460.292C1470.87 460.366 1471.12 460.486 1471.42 460.653C1471.72 460.819 1471.99 461.06 1472.22 461.375C1472.45 461.69 1472.57 462.116 1472.57 462.653C1472.57 463.403 1472.3 464.009 1471.78 464.472C1471.26 464.935 1470.6 465.167 1469.8 465.167ZM1474.74 469.167V456.667H1476.13V457.764C1476.51 457.384 1476.95 457.088 1477.45 456.875C1477.95 456.662 1478.49 456.556 1479.06 456.556C1479.83 456.556 1480.52 456.75 1481.14 457.139C1481.77 457.519 1482.27 458.032 1482.64 458.681C1483.02 459.329 1483.21 460.046 1483.21 460.833C1483.21 461.62 1483.02 462.338 1482.64 462.986C1482.27 463.634 1481.77 464.153 1481.14 464.542C1480.52 464.921 1479.83 465.111 1479.06 465.111C1478.51 465.111 1478 465.014 1477.52 464.819C1477.04 464.625 1476.61 464.356 1476.24 464.014V469.167H1474.74ZM1478.87 463.75C1479.39 463.75 1479.87 463.62 1480.3 463.361C1480.73 463.093 1481.07 462.741 1481.32 462.306C1481.58 461.861 1481.71 461.37 1481.71 460.833C1481.71 460.296 1481.58 459.81 1481.32 459.375C1481.07 458.931 1480.73 458.579 1480.3 458.319C1479.87 458.051 1479.39 457.917 1478.87 457.917C1478.34 457.917 1477.86 458.051 1477.42 458.319C1477 458.579 1476.65 458.931 1476.39 459.375C1476.14 459.81 1476.02 460.296 1476.02 460.833C1476.02 461.37 1476.14 461.861 1476.39 462.306C1476.65 462.741 1477 463.093 1477.42 463.361C1477.86 463.62 1478.34 463.75 1478.87 463.75ZM1488.86 465.111C1488.1 465.111 1487.4 464.921 1486.77 464.542C1486.14 464.153 1485.64 463.634 1485.26 462.986C1484.89 462.338 1484.71 461.62 1484.71 460.833C1484.71 460.046 1484.89 459.329 1485.26 458.681C1485.64 458.032 1486.14 457.519 1486.77 457.139C1487.4 456.75 1488.1 456.556 1488.86 456.556C1489.43 456.556 1489.97 456.662 1490.47 456.875C1490.98 457.088 1491.42 457.384 1491.79 457.764V456.667H1493.18V465H1491.79V463.903C1491.42 464.273 1490.98 464.569 1490.47 464.792C1489.97 465.005 1489.43 465.111 1488.86 465.111ZM1489.05 463.75C1489.58 463.75 1490.06 463.62 1490.48 463.361C1490.92 463.093 1491.26 462.741 1491.51 462.306C1491.77 461.861 1491.9 461.37 1491.9 460.833C1491.9 460.296 1491.77 459.81 1491.51 459.375C1491.26 458.931 1490.92 458.579 1490.48 458.319C1490.06 458.051 1489.58 457.917 1489.05 457.917C1488.52 457.917 1488.04 458.051 1487.61 458.319C1487.18 458.579 1486.84 458.931 1486.58 459.375C1486.33 459.81 1486.21 460.296 1486.21 460.833C1486.21 461.37 1486.33 461.861 1486.58 462.306C1486.84 462.741 1487.18 463.093 1487.61 463.361C1488.04 463.62 1488.52 463.75 1489.05 463.75ZM1495.84 465V456.667H1497.22V458.194C1497.52 457.704 1497.91 457.315 1498.4 457.028C1498.9 456.731 1499.48 456.583 1500.15 456.583L1500.53 458.083C1500.35 458.028 1500.15 458 1499.92 458C1499.14 458 1498.52 458.25 1498.04 458.75C1497.57 459.241 1497.34 459.944 1497.34 460.861V465H1495.84ZM1505.78 465.167C1504.91 465.167 1504.13 464.972 1503.44 464.583C1502.75 464.194 1502.21 463.667 1501.81 463C1501.42 462.324 1501.23 461.574 1501.23 460.75C1501.23 459.963 1501.42 459.25 1501.8 458.611C1502.18 457.963 1502.69 457.449 1503.33 457.069C1503.97 456.69 1504.69 456.5 1505.46 456.5C1506.23 456.5 1506.94 456.685 1507.58 457.056C1508.21 457.417 1508.72 457.907 1509.1 458.528C1509.48 459.148 1509.67 459.852 1509.67 460.639V461.25H1504.23C1503.99 461.25 1503.74 461.241 1503.49 461.222C1503.24 461.204 1503 461.176 1502.76 461.139C1502.86 461.88 1503.19 462.5 1503.76 463C1504.33 463.5 1505.01 463.75 1505.8 463.75C1506.33 463.75 1506.82 463.63 1507.27 463.389C1507.72 463.148 1508.09 462.829 1508.37 462.431L1508.78 464.139C1508.39 464.463 1507.93 464.718 1507.41 464.903C1506.9 465.079 1506.36 465.167 1505.78 465.167ZM1502.71 460.125C1503.21 460.042 1503.72 460 1504.23 460H1506.99C1507.2 460 1507.4 460.009 1507.59 460.028C1507.79 460.037 1508 460.051 1508.2 460.069C1508.07 459.421 1507.75 458.889 1507.23 458.472C1506.71 458.046 1506.12 457.833 1505.46 457.833C1504.79 457.833 1504.2 458.06 1503.69 458.514C1503.18 458.958 1502.85 459.495 1502.71 460.125ZM1511.68 465V456.667H1513.06V458.014C1513.37 457.523 1513.76 457.148 1514.24 456.889C1514.74 456.63 1515.26 456.5 1515.83 456.5C1516.42 456.5 1516.97 456.648 1517.47 456.944C1517.98 457.231 1518.39 457.653 1518.7 458.208C1519.02 458.755 1519.18 459.421 1519.18 460.208V465H1517.68V460.417C1517.68 459.759 1517.48 459.181 1517.08 458.681C1516.69 458.171 1516.14 457.917 1515.43 457.917C1514.84 457.917 1514.32 458.13 1513.86 458.556C1513.4 458.972 1513.18 459.579 1513.18 460.375V465H1511.68ZM1525.51 465.167C1524.69 465.167 1523.95 464.972 1523.29 464.583C1522.62 464.194 1522.09 463.671 1521.69 463.014C1521.29 462.356 1521.09 461.63 1521.09 460.833C1521.09 460.037 1521.29 459.31 1521.69 458.653C1522.09 457.995 1522.62 457.472 1523.29 457.083C1523.95 456.694 1524.69 456.5 1525.51 456.5C1526.11 456.5 1526.68 456.606 1527.2 456.819C1527.73 457.032 1528.19 457.315 1528.59 457.667L1528.13 459.556C1527.9 459.093 1527.55 458.704 1527.08 458.389C1526.61 458.074 1526.09 457.917 1525.49 457.917C1524.96 457.917 1524.47 458.051 1524.02 458.319C1523.59 458.579 1523.24 458.931 1522.98 459.375C1522.72 459.81 1522.59 460.296 1522.59 460.833C1522.59 461.361 1522.72 461.847 1522.98 462.292C1523.24 462.736 1523.59 463.093 1524.02 463.361C1524.47 463.62 1524.96 463.75 1525.49 463.75C1526.09 463.75 1526.61 463.597 1527.08 463.292C1527.55 462.986 1527.9 462.593 1528.13 462.111L1528.59 464C1528.19 464.352 1527.73 464.634 1527.2 464.847C1526.68 465.06 1526.11 465.167 1525.51 465.167ZM1530.08 469.167L1532.79 463.778L1529.26 456.667H1530.95L1532.73 460.278C1532.89 460.602 1533.04 460.921 1533.19 461.236C1533.34 461.551 1533.49 461.931 1533.63 462.375C1533.79 461.931 1533.94 461.551 1534.08 461.236C1534.23 460.912 1534.38 460.593 1534.55 460.278L1536.36 456.667H1537.95L1531.7 469.167H1530.08Z" fill="white"/>
<defs>
<filter id="filter0_d_0_1" x="187" y="18.0041" width="48.0006" height="52.1559" filterUnits="userSpaceOnUse" color-interpolation-filters="sRGB">
<feFlood flood-opacity="0" result="BackgroundImageFix"/>
<feColorMatrix in="SourceAlpha" type="matrix" values="0 0 0 0 0 0 0 0 0 0 0 0 0 0 0 0 0 0 127 0" result="hardAlpha"/>
<feOffset dy="4"/>
<feGaussianBlur stdDeviation="2"/>
<feComposite in2="hardAlpha" operator="out"/>
<feColorMatrix type="matrix" values="0 0 0 0 0 0 0 0 0 0 0 0 0 0 0 0 0 0 0.25 0"/>
<feBlend mode="normal" in2="BackgroundImageFix" result="effect1_dropShadow_0_1"/>
<feBlend mode="normal" in="SourceGraphic" in2="effect1_dropShadow_0_1" result="shape"/>
</filter>
<clipPath id="clip0_0_1">
<rect width="48" height="48" fill="white" transform="translate(187 16)"/>
</clipPath>
</defs>
</svg>
